<?xml version="1.0" encoding="utf-8"?>
<!-- Generator: Adobe Illustrator 19.2.1, SVG Export Plug-In . SVG Version: 6.00 Build 0)  -->
<svg version="1.1" id="Layer_1" xmlns="http://www.w3.org/2000/svg" xmlns:xlink="http://www.w3.org/1999/xlink" x="0px" y="0px"
	 viewBox="0 0 228.6 51.8" style="enable-background:new 0 0 228.6 51.8;" xml:space="preserve">
<style type="text/css">
	.st0{fill:#E9E9E9;}
	.st1{fill:#EFBE14;}
</style>
<g>
	<path class="st0" d="M12.7,18.9c1.2,0.7,2.4,1.5,3.3,2.3s1.9,1.7,2.5,2.7s1.2,1.9,1.6,2.8c0.4,0.9,0.5,1.9,0.5,2.8
		c0,1.2-0.3,2.3-0.9,3.2C19,33.6,18.1,34.4,17,35c-1.1,0.7-2.3,1.2-3.7,1.5C12,36.9,10.5,37,9.2,37c-1.1,0-2.1-0.1-3.1-0.4
		c-1.1-0.3-1.9-0.7-2.8-1.1c-0.8-0.5-1.6-1.2-2.1-1.9C0.7,32.9,0.1,32,0,30.9c0-0.1,0-0.3,0-0.4C0,30,0.1,29.4,0.5,29
		c0.4-0.4,0.8-0.5,1.3-0.5c0.3,0,0.5,0,0.8,0.1c0.3,0.1,0.5,0.3,0.7,0.5c0.3,0.5,0.7,0.9,1.1,1.3c0.5,0.4,1.1,0.7,1.6,0.9
		c0.5,0.3,1.2,0.5,1.9,0.7c0.7,0.1,1.3,0.3,2,0.3s1.3,0,1.9-0.1c0.7-0.1,1.2-0.3,1.6-0.5c0.4-0.3,0.8-0.7,1.1-1.1
		c0.3-0.4,0.4-0.9,0.4-1.5c0-1.1-0.3-2-0.7-2.9c-0.4-0.9-1.1-1.7-1.9-2.4c-0.8-0.8-1.6-1.5-2.5-2.1s-1.9-1.2-2.8-1.9
		c-0.1,0-0.3-0.3-0.4-0.5c-0.3-0.3-0.3-0.5-0.3-0.9c0-0.3,0-0.4,0.1-0.5c0.3-0.4,0.7-0.9,1.2-1.3c0.4-0.4,0.9-0.8,1.3-1.2
		c0.5-0.4,1.1-0.7,1.6-0.9C10.8,14,11.5,14,12,14c0.4,0,0.9,0,1.2,0.1s0.7,0.3,0.9,0.5c0.3,0.1,0.5,0.4,0.7,0.7
		c0.1,0.3,0.3,0.4,0.3,0.7c0,0.3-0.1,0.5-0.3,0.8c-0.1,0.3-0.3,0.5-0.5,0.8s-0.5,0.5-0.8,0.8C13.3,18.5,12.9,18.6,12.7,18.9z"/>
	<path class="st0" d="M55.1,21.8c0.3-0.1,0.5-0.3,0.8-0.4c0.3-0.1,0.5-0.1,0.7-0.1c0.4,0,0.8,0.1,1.1,0.5s0.4,0.8,0.4,1.2
		c0,0.5-0.1,1.1-0.4,1.6c-0.3,0.5-0.7,1.1-1.2,1.3c-2.1,1.6-4.1,3.2-5.9,4.5c-1.7,1.3-3.3,2.5-4.9,3.5c-1.5,0.9-3.1,1.7-4.5,2.3
		S38.1,37,36.5,37s-2.8-0.3-3.6-0.8c-0.8-0.5-1.3-1.3-1.3-2.4c0-0.1,0-0.1,0-0.3s0-0.1,0-0.3c0.1-0.7,0.4-1.3,0.9-2.1
		c0.5-0.8,1.2-1.6,2-2.5c0.8-0.9,1.6-1.7,2.5-2.7c0.9-0.9,1.7-1.7,2.4-2.5c0.8-0.8,1.3-1.5,1.9-2.1c0.5-0.7,0.8-1.2,0.8-1.6
		c0-0.3-0.1-0.4-0.3-0.5c-0.3-0.1-0.5-0.3-1.1-0.3c-0.8,0-1.6,0.1-2.5,0.5c-0.9,0.4-1.7,0.8-2.5,1.5c-0.8,0.7-1.7,1.3-2.5,2.1
		c-0.8,0.8-1.6,1.6-2.3,2.4c-0.7,0.8-1.3,1.7-2,2.5c-0.5,0.8-1.1,1.6-1.5,2.4c-0.1,0.3-0.3,0.5-0.5,0.9c-0.3,0.4-0.5,0.9-0.8,1.3
		c-0.3,0.5-0.5,1.1-0.8,1.6c-0.3,0.5-0.5,1.1-0.8,1.6c-0.3,0.5-0.4,0.9-0.7,1.3c-0.1,0.4-0.3,0.7-0.4,0.8c-0.1,0.1-0.3,0.5-0.5,1.1
		c-0.3,0.5-0.5,1.1-0.8,1.7c-0.3,0.7-0.7,1.5-0.9,2.1c-0.3,0.7-0.7,1.5-0.9,2.1c-0.3,0.7-0.5,1.3-0.8,1.7c-0.3,0.5-0.4,0.8-0.4,1.1
		c-0.3,0.5-0.4,1.1-0.7,1.5c-0.3,0.4-0.5,0.9-0.9,1.2c-0.4,0.4-0.8,0.7-1.2,0.8c-0.4,0.3-0.9,0.3-1.6,0.3c-0.8,0-1.3-0.1-1.9-0.4
		s-0.7-0.8-0.7-1.7c0-0.4,0-0.8,0.1-1.2s0.3-0.8,0.4-1.3c0.1-0.4,0.4-0.8,0.5-1.2s0.4-0.8,0.5-1.2c1.1-2,2.3-4.1,3.3-6.1
		c1.2-2,2.3-4.1,3.3-6.1c1.1-2,2-4,2.9-6c0.9-2,1.6-3.9,2.3-5.6c0.1-0.4,0.4-0.9,0.7-1.6s0.7-1.3,0.9-2c0.4-0.7,0.8-1.2,1.2-1.7
		c0.4-0.5,0.9-0.7,1.5-0.7c0.8,0,1.5,0.1,1.7,0.5c0.4,0.3,0.5,0.8,0.5,1.3c0,0.1,0,0.3,0,0.5c0,0.3-0.1,0.5-0.1,0.8
		c0,0.3-0.1,0.5-0.1,0.8s-0.1,0.4-0.1,0.5c0.8-0.7,1.6-1.3,2.4-2.1c0.9-0.7,1.7-1.3,2.8-1.9c0.9-0.5,1.9-1.1,2.9-1.3
		c0.9-0.4,2-0.5,2.9-0.5c0.7,0,1.3,0.1,2,0.3c0.7,0.1,1.2,0.4,1.7,0.7c0.5,0.3,0.9,0.7,1.3,1.2c0.3,0.5,0.5,1.1,0.5,1.7
		c0,0.8-0.3,1.7-0.8,2.7c-0.5,0.9-1.1,1.9-1.9,2.9c-0.8,0.9-1.6,1.9-2.4,2.8c-0.9,0.9-1.7,1.7-2.5,2.5c-0.8,0.8-1.5,1.3-2,1.9
		C38.2,30.5,38,30.9,38,31c0,0.3,0.1,0.4,0.3,0.5c0.1,0.1,0.5,0.3,0.9,0.3s0.8-0.1,1.6-0.5c0.7-0.3,1.6-0.9,2.8-1.7
		c1.2-0.8,2.8-1.9,4.7-3.2C50.1,25.6,52.3,23.8,55.1,21.8z"/>
	<path class="st0" d="M66.1,13.9c0.8,0,1.6,0.1,2.5,0.3c0.9,0.3,1.7,0.5,2.5,1.1c0.8,0.5,1.3,1.2,1.9,2s0.8,1.9,0.8,2.9
		c0,0.7-0.1,1.3-0.3,2.1c-0.1,0.8-0.4,1.6-0.8,2.5c0.3,0.3,0.4,0.4,0.7,0.5s0.5,0.1,0.8,0.1c0.4,0,0.9-0.1,1.5-0.4
		c0.5-0.3,1.1-0.5,1.6-0.9c0.5-0.4,1.1-0.8,1.6-1.3s1.1-0.9,1.6-1.5c0.5-0.5,0.9-0.9,1.3-1.3c0.4-0.4,0.7-0.8,0.9-1.1
		c0.1-0.1,0.3-0.3,0.5-0.3s0.5,0.1,0.8,0.4c0.3,0.3,0.4,0.7,0.4,1.2s-0.1,1.2-0.5,1.9c-0.3,0.7-0.9,1.5-1.7,2.1
		c-0.5,0.5-1.1,1.2-1.7,1.9c-0.7,0.7-1.3,1.3-2,2c-0.7,0.7-1.5,1.2-2.3,1.6s-1.6,0.7-2.4,0.7c-0.5,0-1.1-0.1-1.6-0.3
		s-1.1-0.4-1.5-0.8c-0.8,1.2-1.6,2.1-2.5,3.2c-0.9,0.9-2,1.7-3.2,2.4c-1.2,0.7-2.4,1.2-3.7,1.6S58.5,37,57,37c-0.5,0-1.2-0.1-2-0.4
		c-0.8-0.3-1.5-0.5-2.1-1.1c-0.7-0.5-1.2-1.2-1.7-2c-0.5-0.8-0.7-1.9-0.7-3.1c0-0.8,0.1-1.9,0.4-2.9c0.3-1.2,0.7-2.3,1.2-3.6
		s1.2-2.4,2-3.6c0.8-1.2,1.9-2.3,2.9-3.2c1.2-0.9,2.4-1.7,4-2.3C62.6,14.3,64.2,13.9,66.1,13.9z M64.5,19.3c-0.9,0-1.9,0.3-2.8,0.7
		c-0.9,0.5-1.7,1.1-2.4,1.9c-0.7,0.8-1.2,1.7-1.6,2.7c-0.4,0.9-0.7,2-0.7,3.1c0,0.4,0,0.8,0.1,1.3c0,0.4,0.1,0.9,0.4,1.3
		s0.5,0.7,0.8,0.9c0.4,0.3,0.8,0.4,1.5,0.4c0.9,0,1.9-0.3,2.8-0.8s1.7-1.2,2.4-2c0.7-0.8,1.2-1.7,1.6-2.8c0.4-1.1,0.7-2,0.7-3.1
		c0-0.4,0-0.8-0.1-1.3c0-0.4-0.1-0.8-0.4-1.2c-0.1-0.4-0.5-0.7-0.8-0.9C65.5,19.4,65.1,19.3,64.5,19.3z"/>
	<path class="st0" d="M89.5,18.4c0.8-0.5,1.6-0.9,2.5-1.3c0.8-0.4,1.7-0.8,2.5-1.1c0.8-0.3,1.6-0.5,2.3-0.7s1.3-0.3,2-0.3
		c0.9,0,1.6,0.3,2.1,0.7s0.8,1.2,0.8,2.3c0,0.3,0,0.4,0,0.7c0,0.3,0,0.5-0.1,0.8c-0.1,0.5-0.4,1.2-0.9,1.9c-0.5,0.7-1.1,1.5-1.7,2.3
		s-1.5,1.6-2.3,2.4c-0.8,0.8-1.5,1.5-2.1,2.1s-1.2,1.2-1.6,1.7c-0.4,0.5-0.7,0.8-0.7,1.1c0,0.1,0,0.3,0,0.4c0,0,0.1,0.1,0.3,0.1
		c1.1-0.5,2.4-1.1,3.7-1.7c1.3-0.7,2.7-1.3,4.1-2c1.3-0.7,2.7-1.3,3.9-2c1.2-0.7,2.3-1.2,3.1-1.7c0.1-0.1,0.4-0.1,0.5-0.3
		s0.4-0.1,0.5-0.1c0.4,0,0.7,0.1,0.9,0.4c0.3,0.3,0.4,0.5,0.4,0.9c0,0.5-0.1,1.1-0.5,1.6c-0.4,0.7-1.1,1.2-2,1.9
		c-0.7,0.4-1.5,0.9-2.4,1.5c-0.9,0.5-1.9,1.2-2.8,1.7c-0.9,0.7-2,1.2-2.9,1.7c-0.9,0.5-2,1.1-2.9,1.6c-0.9,0.4-1.7,0.8-2.5,1.1
		c-0.8,0.3-1.5,0.4-2.1,0.4c-1.5,0-2.5-0.4-3.2-1.1c-0.7-0.7-1.1-1.6-1.1-2.7c0-0.1,0-0.3,0-0.4c0.1-0.9,0.4-1.7,0.8-2.7
		c0.4-0.9,0.8-1.6,1.3-2.4c0.5-0.8,1.1-1.5,1.6-2.1c0.5-0.7,1.1-1.3,1.5-2c0.4-0.7,0.8-1.2,1.1-1.7c0.3-0.5,0.4-0.9,0.4-1.5
		c0-0.1,0-0.3,0-0.3c0-0.1-0.1-0.1-0.3-0.1c-0.3,0-0.7,0.1-1.2,0.3c-0.5,0.1-1.2,0.4-1.7,0.8c-0.7,0.3-1.2,0.7-1.9,1.1
		c-0.5,0.4-0.9,0.8-1.2,1.3c-0.3,0.5-0.7,1.3-1.2,2.1c-0.5,0.8-0.9,1.9-1.3,2.8c-0.4,0.9-0.9,1.9-1.3,2.8c-0.4,0.9-0.8,1.7-1.1,2.4
		c-0.3,0.5-0.5,1.1-0.9,1.6c-0.4,0.5-0.8,0.9-1.3,1.2c-0.5,0.3-0.9,0.5-1.5,0.8c-0.5,0.1-0.9,0.3-1.3,0.3c-0.5,0-0.8-0.1-1.1-0.4
		c-0.3-0.3-0.4-0.7-0.4-1.2c0-0.3,0-0.5,0.1-0.8c0.1-0.4,0.3-0.7,0.4-1.1c0.4-0.7,0.8-1.5,1.1-2.3c0.4-0.8,0.8-1.7,1.3-2.8
		c0.5-1.1,1.1-2.3,1.7-3.6c0.7-1.3,1.5-2.9,2.3-4.7c-0.3-0.3-0.5-0.5-0.7-0.9c-0.1-0.4-0.3-0.8-0.3-1.3s0.1-0.9,0.3-1.3
		c0.3-0.4,0.5-0.7,0.8-0.9c0.4-0.3,0.8-0.4,1.2-0.5s0.9-0.1,1.5-0.1c0.5,0,1.1,0,1.6,0.1c0.5,0.1,1.1,0.3,1.5,0.4
		c0.4,0.1,0.8,0.4,1.1,0.7c0.3,0.3,0.4,0.5,0.4,0.9c0,0,0,0.1,0,0.3c0,0.1-0.1,0.3-0.1,0.4c0,0.1-0.1,0.3-0.1,0.4
		C89.4,18.1,89.4,18.2,89.5,18.4C89.4,18.4,89.4,18.4,89.5,18.4L89.5,18.4L89.5,18.4z"/>
	<path class="st0" d="M113.8,19.2c-0.8,1.5-1.5,2.9-2.1,4.3c-0.7,1.5-1.3,2.7-1.9,3.9c-0.3,0.5-0.5,1.1-0.7,1.7
		c-0.3,0.7-0.4,1.2-0.4,1.7c0,0.3,0,0.5,0.1,0.7s0.4,0.3,0.7,0.3c0.4,0,0.9-0.1,1.6-0.4c0.7-0.3,1.3-0.5,2.1-1.1
		c0.8-0.4,1.6-0.9,2.4-1.5c0.8-0.5,1.6-1.1,2.5-1.7c0.8-0.5,1.6-1.2,2.3-1.7c0.8-0.5,1.3-1.1,2-1.6c0.3-0.3,0.7-0.4,0.9-0.4
		c0.4,0,0.7,0.1,0.8,0.4c0.1,0.3,0.4,0.7,0.4,1.2c0,0.5-0.1,0.9-0.4,1.5c-0.3,0.5-0.7,0.9-1.2,1.5c-1.3,1.2-2.7,2.4-4,3.5
		c-1.3,1.1-2.7,2-4,2.9c-1.3,0.8-2.7,1.5-4,2c-1.3,0.5-2.5,0.8-3.9,0.8c-0.8,0-1.5-0.1-2-0.3c-0.5-0.3-0.9-0.5-1.3-0.9
		s-0.5-0.8-0.7-1.3c-0.1-0.5-0.3-1.1-0.3-1.6c0-1.1,0.1-2.1,0.5-3.2s0.8-2.1,1.2-2.9c0.7-1.3,1.2-2.5,1.9-3.7s1.2-2.4,1.7-3.6h-1.3
		c-1.2,0-2-0.1-2.4-0.5s-0.7-0.8-0.7-1.2c0-0.3,0-0.4,0.1-0.8c0.1-0.3,0.3-0.5,0.5-0.8c0.3-0.3,0.5-0.5,0.9-0.7
		c0.4-0.1,0.8-0.3,1.2-0.3h3.3l6.5-12.9c0.4-0.8,0.9-1.3,1.5-1.7c0.7-0.4,1.2-0.5,1.9-0.5c0.7,0,1.2,0.1,1.7,0.5
		c0.5,0.3,0.8,0.9,0.8,1.6c0,0.4-0.1,0.8-0.3,1.2c-0.1,0.4-0.4,0.8-0.7,1.3c-0.1,0.4-0.4,0.8-0.7,1.2c-0.3,0.5-0.5,0.9-0.8,1.6
		c-0.3,0.5-0.7,1.1-0.9,1.7c-0.3,0.5-0.7,1.2-0.9,1.7c-0.7,1.3-1.5,2.7-2.3,4.1h10c0.5,0,0.9,0,1.3,0.1c0.4,0,0.8,0.1,1.1,0.3
		s0.5,0.4,0.7,0.7c0.1,0.3,0.3,0.7,0.3,1.1c0,0.3,0,0.4-0.1,0.7c-0.1,0.3-0.3,0.4-0.4,0.7c-0.1,0.1-0.4,0.4-0.8,0.4
		c-0.4,0.1-0.8,0.3-1.3,0.3L113.8,19.2z"/>
	<path class="st1" d="M122.3,21.2c0.7-1.5,1.2-2.5,1.6-3.5c0.4-0.9,0.8-1.6,1.1-2c0.4-0.5,0.7-0.8,1.1-0.9c0.4-0.1,0.8-0.3,1.3-0.3
		c0.8,0,1.5,0.3,2,0.8c0.5,0.5,0.8,1.2,0.8,1.9c0,0.1,0,0.4-0.1,0.5c0,0.1-0.1,0.4-0.3,0.5l-5.2,12.4c-0.1,0.1-0.1,0.4-0.1,0.5
		s0,0.4,0,0.5c0,0.3,0,0.4,0.1,0.5c0.1,0.1,0.3,0.3,0.4,0.3c0.3,0,0.4,0,0.7-0.1c0.3-0.1,0.5-0.3,0.8-0.5s0.7-0.7,1.2-1.1
		c0.4-0.4,1.1-0.9,1.7-1.7c0.7-0.7,1.3-1.5,2-2.4c0.7-0.9,1.3-2,2-3.1s1.2-2.1,1.7-3.2s1.1-2.1,1.5-2.9c0.3-0.7,0.5-1.1,0.8-1.5
		c0.3-0.4,0.5-0.7,0.7-0.9c0.3-0.3,0.5-0.4,0.7-0.4s0.5-0.1,0.8-0.1c1.2,0,1.9,0.5,1.9,1.6c0,0.1,0,0.4-0.1,0.5c0,0.3,0,0.4-0.1,0.7
		l-4.8,14.1c0,0.5,0.3,0.8,0.8,0.8c0.4,0,0.8-0.3,1.5-0.5c0.7-0.4,1.2-0.8,1.9-1.3s1.2-1.1,1.7-1.9c0.5-0.8,0.9-1.3,1.2-2.1
		c0.4-1.3,0.9-2.7,1.3-4.1c0.4-1.5,0.9-2.7,1.5-3.7c0.5-1.1,1.1-2,1.7-2.8c0.7-0.7,1.3-1.1,2-1.2c0.7,0,1.2,0.3,1.6,0.7
		c0.4,0.4,0.7,0.9,0.7,1.6c0,0.8-0.1,1.6-0.3,2.5c-0.1,0.9-0.5,1.9-0.8,2.8c-0.4,0.9-0.8,1.9-1.2,2.7c-0.5,0.8-0.9,1.6-1.5,2.4
		c0.1,0.4,0.4,0.7,0.9,0.7c0.8,0,1.6,0,2.3-0.1s1.3-0.3,2-0.5c0.7-0.3,1.3-0.5,2-0.8s1.3-0.7,2.1-1.2c0.3-0.3,0.7-0.4,0.9-0.4
		c0.4,0,0.8,0.1,1.1,0.4c0.3,0.3,0.5,0.7,0.5,1.2c0,0.4-0.1,0.9-0.5,1.3c-0.4,0.5-0.9,0.9-1.6,1.3c-0.7,0.4-1.3,0.9-2.3,1.2
		c-0.8,0.4-1.7,0.7-2.5,1.1c-0.8,0.3-1.7,0.5-2.4,0.7c-0.8,0.1-1.5,0.3-2.1,0.3c-1.2,0-2.3-0.3-3.6-0.9c-1.5,1.7-2.9,3.1-4.5,4
		c-1.6,0.9-3.1,1.3-4.7,1.3c-1.5,0-2.5-0.4-3.2-1.2c-0.7-0.8-0.9-1.9-0.9-3.3c-1.6,1.6-2.9,2.7-4.3,3.5c-1.3,0.7-2.7,1.1-4.1,1.1
		c-0.9,0-1.6-0.1-2.3-0.3s-1.1-0.5-1.5-0.9c-0.4-0.4-0.7-0.8-0.8-1.3c-0.1-0.5-0.3-1.1-0.3-1.7c0-1.1,0.1-2,0.4-3.2
		c0.3-1.1,0.7-2.1,1.1-3.2c0.4-1.1,0.8-2,1.2-2.9S122,21.7,122.3,21.2z"/>
	<path class="st1" d="M189.1,27.4c-0.4,0.4-0.8,0.8-1.5,1.5c-0.7,0.7-1.3,1.3-2.1,2s-1.6,1.5-2.5,2.1c-0.9,0.7-1.9,1.3-2.8,2
		c-0.9,0.5-1.9,1.1-2.8,1.5s-1.7,0.5-2.5,0.5c-0.7,0-1.3-0.1-1.9-0.4c-0.5-0.3-0.9-0.7-1.3-1.2c-0.4-0.5-0.5-1.1-0.8-1.7
		c-0.1-0.7-0.3-1.2-0.3-1.9c0-0.4,0-0.8,0.1-1.3c0-0.4,0.1-0.8,0.3-1.2c-0.7,0.8-1.3,1.7-2.1,2.7c-0.8,0.9-1.7,1.7-2.7,2.5
		c-0.9,0.8-1.9,1.3-2.9,1.9c-1.1,0.5-2,0.7-3.1,0.7c-0.5,0-1.2-0.1-1.9-0.3c-0.7-0.1-1.3-0.5-2-1.1c-0.7-0.5-1.2-1.1-1.6-1.9
		c-0.4-0.8-0.7-1.7-0.7-2.8c0-0.8,0.1-1.9,0.4-3.1c0.3-1.2,0.7-2.4,1.2-3.6c0.5-1.2,1.2-2.5,2-3.7c0.8-1.2,1.7-2.3,2.9-3.3
		c1.1-0.9,2.4-1.7,3.7-2.4c1.5-0.7,2.9-0.9,4.7-0.9c0.9,0,1.7,0.1,2.4,0.4s1.2,0.5,1.7,0.8c0.5,0.3,1.1,0.7,1.5,1.1
		c0.4-0.1,0.7-0.4,1.1-0.5c0.3-0.1,0.7-0.3,0.9-0.4c0.4-0.1,0.7-0.1,0.9-0.1c0.8,0,1.5,0.3,1.9,0.7c0.5,0.4,0.8,0.9,0.8,1.5
		c0,0.1,0,0.3,0,0.4c-0.1,0.4-0.3,0.9-0.5,1.5s-0.4,1.2-0.7,2c-0.3,0.7-0.5,1.5-0.8,2.3c-0.3,0.8-0.5,1.6-0.8,2.3
		c-0.3,0.8-0.4,1.5-0.5,2.1c-0.1,0.7-0.3,1.2-0.3,1.7c0,0.7,0.1,1.1,0.3,1.5c0.3,0.4,0.5,0.5,1.1,0.5c0.3,0,0.7-0.1,1.1-0.3
		s0.9-0.4,1.3-0.8c0.5-0.3,0.9-0.7,1.5-1.1s1.1-0.8,1.5-1.3c1.2-1.1,2.4-2.1,3.6-3.5c0.3-0.3,0.7-0.4,0.9-0.4c0.4,0,0.8,0.1,1.1,0.5
		c0.3,0.4,0.4,0.8,0.4,1.3C189.8,26.5,189.5,27,189.1,27.4z M168,19.4c-0.9,0-1.9,0.3-2.8,0.8c-0.9,0.5-1.7,1.2-2.4,2
		c-0.7,0.8-1.2,1.7-1.6,2.7c-0.4,0.9-0.7,2-0.7,2.9c0,0.4,0,0.8,0.1,1.3c0,0.4,0.1,0.8,0.4,1.2c0.1,0.4,0.4,0.7,0.8,0.9
		c0.4,0.3,0.8,0.4,1.3,0.4c0.4,0,0.9-0.1,1.6-0.5c0.7-0.4,1.2-0.9,1.9-1.6s1.3-1.3,1.9-2c0.5-0.7,1.2-1.5,1.6-2.1
		c0.5-0.7,0.9-1.3,1.2-2s0.4-0.9,0.4-1.2c0-0.4-0.1-0.8-0.4-1.1c-0.3-0.3-0.5-0.5-0.9-0.8s-0.8-0.4-1.2-0.5
		C168.6,19.6,168.2,19.4,168,19.4z"/>
	<path class="st1" d="M196.7,18.4c0.8-0.5,1.6-0.9,2.5-1.3c0.8-0.4,1.7-0.8,2.5-1.1c0.8-0.3,1.6-0.5,2.3-0.7s1.3-0.3,2-0.3
		c0.9,0,1.6,0.3,2.1,0.7c0.5,0.4,0.8,1.2,0.8,2.3c0,0.3,0,0.4,0,0.7c0,0.3,0,0.5-0.1,0.8c-0.1,0.5-0.4,1.2-0.9,1.9
		c-0.5,0.7-1.1,1.5-1.7,2.3c-0.7,0.8-1.5,1.6-2.3,2.4c-0.8,0.8-1.5,1.5-2.1,2.1s-1.2,1.2-1.6,1.7s-0.7,0.8-0.7,1.1
		c0,0.1,0,0.3,0,0.4c0,0,0.1,0.1,0.3,0.1c1.1-0.5,2.4-1.1,3.7-1.7s2.7-1.3,4.1-2c1.3-0.7,2.7-1.3,3.9-2c1.2-0.7,2.3-1.2,3.1-1.7
		c0.1-0.1,0.4-0.1,0.5-0.3c0.1-0.1,0.4-0.1,0.5-0.1c0.4,0,0.7,0.1,0.9,0.4c0.3,0.3,0.4,0.5,0.4,0.9c0,0.5-0.3,1.1-0.7,1.6
		c-0.4,0.7-1.1,1.2-2,1.9c-0.7,0.4-1.5,0.9-2.4,1.5c-0.9,0.5-1.9,1.2-2.8,1.7c-0.9,0.7-2,1.2-2.9,1.7c-0.9,0.5-2,1.1-2.9,1.6
		c-0.9,0.5-1.7,0.8-2.5,1.1c-0.8,0.3-1.5,0.4-2.1,0.4c-1.5,0-2.5-0.4-3.2-1.1c-0.7-0.7-1.1-1.6-1.1-2.7c0-0.1,0-0.3,0-0.4
		c0.1-0.9,0.4-1.7,0.8-2.7s0.8-1.6,1.3-2.4c0.5-0.8,1.1-1.5,1.6-2.1s1.1-1.3,1.5-2s0.8-1.2,1.1-1.7s0.4-0.9,0.4-1.5
		c0-0.1,0-0.3,0-0.3c0-0.1-0.1-0.1-0.3-0.1c-0.3,0-0.7,0.1-1.2,0.3c-0.5,0.1-1.2,0.4-1.7,0.8c-0.7,0.3-1.2,0.7-1.9,1.1
		c-0.5,0.4-0.9,0.8-1.2,1.3s-0.7,1.3-1.2,2.1c-0.4,0.9-0.9,1.9-1.3,2.8c-0.4,0.9-0.9,1.9-1.3,2.8s-0.8,1.7-1.1,2.4
		c-0.3,0.5-0.5,1.1-0.9,1.6s-0.8,0.9-1.3,1.2c-0.5,0.3-0.9,0.5-1.5,0.8c-0.5,0.1-0.9,0.3-1.3,0.3c-0.5,0-0.8-0.1-1.1-0.4
		s-0.4-0.7-0.4-1.2c0-0.3,0-0.5,0.1-0.8c0.1-0.4,0.3-0.7,0.4-1.1c0.4-0.7,0.8-1.5,1.1-2.3c0.4-0.8,0.8-1.7,1.3-2.8
		c0.5-1.1,1.1-2.3,1.7-3.6c0.7-1.3,1.5-2.9,2.3-4.7c-0.3-0.3-0.5-0.5-0.7-0.9c-0.1-0.4-0.3-0.8-0.3-1.3s0.1-0.9,0.3-1.3
		c0.3-0.4,0.5-0.7,0.8-0.9c0.4-0.3,0.8-0.4,1.2-0.5c0.4-0.1,0.9-0.1,1.5-0.1c0.5,0,1.1,0,1.6,0.1c0.5,0.1,1.1,0.3,1.5,0.4
		c0.4,0.1,0.8,0.4,1.1,0.7c0.3,0.3,0.4,0.5,0.4,0.9c0,0,0,0.1,0,0.3c0,0.1-0.1,0.3-0.1,0.4c0,0.1-0.1,0.3-0.1,0.4
		C196.6,18.1,196.6,18.2,196.7,18.4C196.6,18.4,196.6,18.4,196.7,18.4L196.7,18.4L196.7,18.4z"/>
	<path class="st1" d="M220.7,18.9c1.2,0.7,2.4,1.5,3.3,2.3c0.9,0.8,1.9,1.7,2.5,2.7c0.7,0.9,1.2,1.9,1.6,2.8
		c0.4,0.9,0.5,1.9,0.5,2.8c0,1.2-0.3,2.3-0.9,3.2c-0.7,0.9-1.6,1.7-2.7,2.4c-1.1,0.7-2.3,1.2-3.7,1.5c-1.3,0.4-2.8,0.5-4.1,0.5
		c-1.1,0-2.1-0.1-3.1-0.4c-1.1-0.3-1.9-0.7-2.8-1.1c-0.8-0.5-1.6-1.1-2.1-1.9c-0.5-0.8-1.1-1.7-1.2-2.8c0-0.1,0-0.3,0-0.4
		c0-0.5,0.1-1.1,0.5-1.5c0.4-0.4,0.8-0.5,1.3-0.5c0.3,0,0.5,0,0.8,0.1s0.5,0.3,0.7,0.5c0.3,0.5,0.7,0.9,1.1,1.3
		c0.5,0.4,1.1,0.7,1.6,0.9s1.2,0.5,1.9,0.7c0.7,0.1,1.3,0.3,2,0.3s1.3,0,1.9-0.1c0.7-0.1,1.2-0.3,1.6-0.5c0.4-0.3,0.8-0.7,1.1-1.1
		c0.3-0.4,0.4-0.9,0.4-1.5c0-1.1-0.3-2-0.7-2.9s-1.1-1.7-1.9-2.4c-0.8-0.8-1.6-1.5-2.5-2.1c-0.9-0.7-1.9-1.2-2.8-1.9
		c-0.1,0-0.3-0.3-0.4-0.5c-0.3-0.3-0.3-0.5-0.3-0.9c0-0.3,0-0.4,0.1-0.5c0.3-0.4,0.7-0.9,1.2-1.3c0.4-0.4,0.9-0.8,1.3-1.2
		c0.5-0.4,1.1-0.7,1.6-0.9c0.5-0.3,1.2-0.4,1.7-0.4c0.4,0,0.9,0,1.2,0.1c0.4,0.1,0.7,0.3,0.9,0.5c0.3,0.1,0.5,0.4,0.7,0.7
		c0.1,0.3,0.3,0.4,0.3,0.7s-0.1,0.5-0.3,0.8c-0.1,0.3-0.3,0.5-0.5,0.8c-0.3,0.3-0.5,0.5-0.8,0.8C221.2,18.5,221,18.6,220.7,18.9z"/>
</g>
</svg>
